# xmcd CD database file
#
# Track frame offsets:
#	197
#	15465
#	32517
#	50002
#	65825
#	82230
#	98537
#	113380
#	132555
#	146825
#	168137
#	182695
#
# Disc length: 2681 seconds
#
# Revision: 1
# Processed by: cddbd v1.5PL3 Copyright (c) Steve Scherf et al.
# Submitted via: CDex 1.51
#
DISCID=9e0a770c
DTITLE=Tri-Sax-ual Soul Champs - Go Girl !
DYEAR=1990
DGENRE=Blues
TTITLE0=Go Girl !
TTITLE1=She Said
TTITLE2=I Messed Up
TTITLE3=Coffe Break
TTITLE4=Costume Party
TTITLE5=Blue Di
TTITLE6=Misirlou
TTITLE7=Cool Face
TTITLE8=Blue am I
TTITLE9=Can't Keep Up with You
TTITLE10=Fatman Blues
TTITLE11=Cherry Race
EXTD=YEAR: 1990
EXTT0=
EXTT1=
EXTT2=
EXTT3=
EXTT4=
EXTT5=
EXTT6=
EXTT7=
EXTT8=
EXTT9=
EXTT10=
EXTT11=
PLAYORDER=
